<svg width="3154" height="732" xmlns="http://www.w3.org/2000/svg" xmlns:xlink="http://www.w3.org/1999/xlink" xml:space="preserve" overflow="hidden"><defs><clipPath id="clip0"><rect x="741" y="852" width="3154" height="732"/></clipPath><clipPath id="clip1"><rect x="1855" y="891" width="2041" height="693"/></clipPath><clipPath id="clip2"><rect x="1855" y="891" width="2041" height="693"/></clipPath><clipPath id="clip3"><rect x="1855" y="891" width="2041" height="693"/></clipPath></defs><g clip-path="url(#clip0)" transform="translate(-741 -852)"><g clip-path="url(#clip1)"><g clip-path="url(#clip2)"><g clip-path="url(#clip3)"><path d="M778.298 17.4526C819.949 17.4526 853.715 51.2178 853.715 92.8689L853.715 279.903 1127.95 279.903 1127.95 92.8689C1127.95 51.2178 1161.71 17.4526 1203.37 17.4526 1245.02 17.4526 1278.78 51.2178 1278.78 92.8689L1278.78 617.767C1278.78 659.418 1245.02 693.183 1203.37 693.183 1161.71 693.183 1127.95 659.418 1127.95 617.767L1127.95 430.734 853.715 430.734 853.715 617.767C853.715 659.418 819.949 693.183 778.298 693.183 736.647 693.183 702.883 659.418 702.883 617.767L702.883 92.8689C702.883 51.2178 736.647 17.4526 778.298 17.4526Z" fill="#1B1E4F" fill-rule="evenodd" transform="matrix(1.00038 0 0 1 1856 891)"/><path d="M150.833 355.262C150.833 251.967 234.57 168.229 337.866 168.229 370.38 168.229 400.958 176.504 427.614 191.111 431.058 133.581 473.91 86.6705 529.544 77.0088 475.107 39.4482 409.058 17.3967 337.866 17.3967 151.267 17.3967 0 168.664 0 355.262 0 541.861 151.267 693.128 337.866 693.128 448.583 693.128 546.863 639.792 608.362 557.735 633.341 524.403 626.572 477.135 593.243 452.156 559.913 427.177 512.645 433.946 487.664 467.276 453.422 512.967 399.078 542.295 337.866 542.295 234.57 542.295 150.833 458.558 150.833 355.262Z" fill="#1B1E4F" transform="matrix(1.00038 0 0 1 1856 891)"/><path d="M1691.53 168.285C1588.24 168.285 1504.5 252.024 1504.5 355.317 1504.5 458.613 1588.24 542.35 1691.53 542.35 1767.99 542.35 1833.74 496.469 1862.74 430.734L1760.54 430.734C1718.88 430.734 1685.12 396.969 1685.12 355.317 1685.12 313.666 1718.88 279.901 1760.54 279.901L1953.98 279.901C1995.63 279.901 2029.4 313.666 2029.4 355.317 2029.4 541.916 1878.13 693.183 1691.53 693.183 1504.93 693.183 1353.67 541.916 1353.67 355.317 1353.67 168.72 1504.93 17.4526 1691.53 17.4526 1771.21 17.4526 1844.63 45.1292 1902.41 91.3337 1934.94 117.346 1940.23 164.804 1914.21 197.334 1888.2 229.864 1840.74 235.147 1808.21 209.133 1776.21 183.54 1735.75 168.285 1691.53 168.285Z" fill="#1B1E4F" fill-rule="evenodd" transform="matrix(1.00038 0 0 1 1856 891)"/><path d="M624.546 198.61C624.546 240.235 590.801 273.98 549.176 273.98 507.549 273.98 473.804 240.235 473.804 198.61 473.804 156.984 507.549 123.24 549.176 123.24 590.801 123.24 624.546 156.984 624.546 198.61Z" fill="#FF2063" transform="matrix(1.00038 0 0 1 1856 891)"/></g></g></g><text font-family="Aptos,Aptos_MSFontService,sans-serif" font-weight="400" font-size="183" transform="matrix(1 0 0 1 851.265 1076)">Powered by</text></g></svg>